<?xml version="1.0" encoding="UTF-8" standalone="no"?>
<!DOCTYPE svg PUBLIC "-//W3C//DTD SVG 1.1//EN"
 "http://www.w3.org/Graphics/SVG/1.1/DTD/svg11.dtd">
<!-- Generated by graphviz version 2.38.0 (20140413.2041)
 -->
<!-- Title: G Pages: 1 -->
<svg width="249pt" height="260pt"
 viewBox="0.00 0.00 249.00 260.00" xmlns="http://www.w3.org/2000/svg" xmlns:xlink="http://www.w3.org/1999/xlink">
<g id="graph0" class="graph" transform="scale(1 1) rotate(0) translate(4 256)">
<title>G</title>
<polygon fill="white" stroke="none" points="-4,4 -4,-256 245,-256 245,4 -4,4"/>
<!-- 6 -->
<g id="node1" class="node"><title>6</title>
<ellipse fill="none" stroke="black" cx="135" cy="-234" rx="40.6248" ry="18"/>
<text text-anchor="middle" x="135" y="-229.8" font-family="Times,serif" font-size="14.00">Program</text>
</g>
<!-- 5 -->
<g id="node2" class="node"><title>5</title>
<ellipse fill="none" stroke="black" cx="92" cy="-162" rx="27" ry="18"/>
<text text-anchor="middle" x="92" y="-157.8" font-family="Times,serif" font-size="14.00">=</text>
</g>
<!-- 6&#45;&gt;5 -->
<g id="edge1" class="edge"><title>6&#45;&gt;5</title>
<path fill="none" stroke="black" d="M124.81,-216.411C119.54,-207.832 113.003,-197.191 107.154,-187.67"/>
<polygon fill="black" stroke="black" points="110.038,-185.677 101.821,-178.988 104.073,-189.341 110.038,-185.677"/>
</g>
<!-- 7 -->
<g id="node3" class="node"><title>7</title>
<ellipse fill="none" stroke="black" cx="178" cy="-162" rx="40.6248" ry="18"/>
<text text-anchor="middle" x="178" y="-157.8" font-family="Times,serif" font-size="14.00">Program</text>
</g>
<!-- 6&#45;&gt;7 -->
<g id="edge2" class="edge"><title>6&#45;&gt;7</title>
<path fill="none" stroke="black" d="M145.19,-216.411C150.385,-207.955 156.811,-197.494 162.595,-188.078"/>
<polygon fill="black" stroke="black" points="165.631,-189.823 167.883,-179.47 159.666,-186.159 165.631,-189.823"/>
</g>
<!-- 4 -->
<g id="node4" class="node"><title>4</title>
<ellipse fill="none" stroke="black" cx="27" cy="-90" rx="27" ry="18"/>
<text text-anchor="middle" x="27" y="-85.8" font-family="Times,serif" font-size="14.00">b</text>
</g>
<!-- 5&#45;&gt;4 -->
<g id="edge3" class="edge"><title>5&#45;&gt;4</title>
<path fill="none" stroke="black" d="M78.2152,-146.155C69.3389,-136.596 57.6373,-123.994 47.6601,-113.249"/>
<polygon fill="black" stroke="black" points="50.1343,-110.77 40.765,-105.824 45.0047,-115.533 50.1343,-110.77"/>
</g>
<!-- 3 -->
<g id="node5" class="node"><title>3</title>
<ellipse fill="none" stroke="black" cx="99" cy="-90" rx="27" ry="18"/>
<text text-anchor="middle" x="99" y="-85.8" font-family="Times,serif" font-size="14.00">2</text>
</g>
<!-- 5&#45;&gt;3 -->
<g id="edge4" class="edge"><title>5&#45;&gt;3</title>
<path fill="none" stroke="black" d="M93.7303,-143.697C94.5017,-135.983 95.4288,-126.712 96.2888,-118.112"/>
<polygon fill="black" stroke="black" points="99.7771,-118.403 97.2896,-108.104 92.8118,-117.706 99.7771,-118.403"/>
</g>
<!-- 2 -->
<g id="node6" class="node"><title>2</title>
<ellipse fill="none" stroke="black" cx="178" cy="-90" rx="27" ry="18"/>
<text text-anchor="middle" x="178" y="-85.8" font-family="Times,serif" font-size="14.00">=</text>
</g>
<!-- 7&#45;&gt;2 -->
<g id="edge5" class="edge"><title>7&#45;&gt;2</title>
<path fill="none" stroke="black" d="M178,-143.697C178,-135.983 178,-126.712 178,-118.112"/>
<polygon fill="black" stroke="black" points="181.5,-118.104 178,-108.104 174.5,-118.104 181.5,-118.104"/>
</g>
<!-- 1 -->
<g id="node7" class="node"><title>1</title>
<ellipse fill="none" stroke="black" cx="142" cy="-18" rx="27" ry="18"/>
<text text-anchor="middle" x="142" y="-13.8" font-family="Times,serif" font-size="14.00">a</text>
</g>
<!-- 2&#45;&gt;1 -->
<g id="edge6" class="edge"><title>2&#45;&gt;1</title>
<path fill="none" stroke="black" d="M169.65,-72.7646C165.288,-64.2831 159.853,-53.7144 154.959,-44.1974"/>
<polygon fill="black" stroke="black" points="157.99,-42.4395 150.304,-35.1473 151.765,-45.6409 157.99,-42.4395"/>
</g>
<!-- 0 -->
<g id="node8" class="node"><title>0</title>
<ellipse fill="none" stroke="black" cx="214" cy="-18" rx="27" ry="18"/>
<text text-anchor="middle" x="214" y="-13.8" font-family="Times,serif" font-size="14.00">0</text>
</g>
<!-- 2&#45;&gt;0 -->
<g id="edge7" class="edge"><title>2&#45;&gt;0</title>
<path fill="none" stroke="black" d="M186.35,-72.7646C190.712,-64.2831 196.147,-53.7144 201.041,-44.1974"/>
<polygon fill="black" stroke="black" points="204.235,-45.6409 205.696,-35.1473 198.01,-42.4395 204.235,-45.6409"/>
</g>
</g>
</svg>
